<svg xmlns="http://www.w3.org/2000/svg" data-src="https://static.ivanti.com/sites/marketing/media/images/icons/misc/arrow-magnify-hand-circles.svg" viewBox="0 0 150 150">

<title>Assign Track and Block Access_GRAY</title>
<g>
	<path class="st0" d="M72.8,125.8l-7-5.5c1.6-2.5,2.4-5.3,2.4-8.3c0-8.6-7-15.5-15.6-15.5c-8.6,0-15.5,7-15.5,15.6   c0,8.6,7,15.5,15.6,15.5c3.2,0,6.2-1,8.8-2.8c0.4-0.3,0.8-0.6,1.1-0.9l7.2,5.6c0.4,0.3,0.9,0.5,1.5,0.5c0.7,0,1.5-0.3,1.9-0.9   C74,128.1,73.8,126.6,72.8,125.8z M52.6,122.9c-6,0-10.8-4.9-10.8-10.9c0-6,4.9-10.8,10.9-10.8c0.7,0,1.3,0.1,1.9,0.2   c5.2,1,8.9,5.5,8.9,10.7c0,2.5-0.9,4.8-2.3,6.7c-0.2,0.1-0.4,0.3-0.6,0.5c-0.1,0.1-0.2,0.3-0.3,0.5   C58.4,121.7,55.6,122.9,52.6,122.9z"/>
	<path class="st0" d="M130.5,48.6c0-0.2,0-0.3,0-0.5c-0.1-3-2.6-5.2-5.6-5.1c-0.2,0-0.3,0-0.5,0.1v-0.9c0-3-2.4-5.3-5.3-5.3   c-0.6,0-1.1,0.1-1.6,0.3c-1-1.5-2.7-2.4-4.6-2.4c-2,0-3.7,1.1-4.7,2.6c-0.4-0.1-0.9-0.2-1.4-0.3c-3.1-0.1-5.7,2.3-5.8,5.3V67   c-0.5-0.2-1.2-0.6-1.7-0.8c-1.1-0.6-2.3-1.2-3.7-1.8c-2.8-1.2-4.8-0.7-5.9,0c-1.6,1-2.7,2.7-3,4.6c-0.1,0.7,0.1,1.5,0.6,2   c0.3,0.3,6.7,7,10.4,10.5c2.2,2.1,4.8,3.7,7.7,4.8c0.6,0.2,1.2,0.4,1.9,0.5c1.9,0.3,3.8,0.4,5.8,0.4c2.1,0,4.1-0.2,6.2-0.6   c9.4-1.9,11.5-11.1,11.3-15.6V48.6z M118.2,81.9c-3.4,0.6-6.8,0.6-10.2,0.1c-0.3,0-0.6-0.1-0.8-0.2c-2.3-0.9-4.4-2.2-6.2-3.8   c-2.8-2.6-7.2-7.2-9.2-9.2c0.1-0.1,0.2-0.2,0.3-0.2c0.6-0.1,1.2-0.1,1.8,0.2c1.2,0.5,2.3,1.1,3.3,1.6c2.5,1.3,4.5,2.3,6.5,1.3   c1.3-0.8,2.1-2.1,2.1-3.5c0-0.1,0-0.2,0-0.3V42.4c0-0.5,0.4-0.8,0.8-0.8c0.4,0,0.7,0.2,0.8,0.5v13.6c0.1,1.2,1,2.1,2.2,2.2   c1.3,0.1,2.3-0.8,2.5-2.1c0-0.2,0.1-0.3,0.1-0.5V42.4c0-0.1,0-0.3-0.1-0.4v-1.7c0-0.5,0.4-0.8,0.8-0.8s0.8,0.4,0.8,0.8v1.9v13.7   v0.6c0.1,1.2,1,2.1,2.2,2.2c1.3,0.1,2.4-0.9,2.5-2.2v-0.6V42.2c0-0.3,0.3-0.6,0.6-0.6c0.3,0,0.6,0.3,0.6,0.6V59c0,0,0,0,0,0   c0,1.3,1.1,2.4,2.4,2.4c0,0,0,0,0,0c1.3,0,2.4-1.1,2.3-2.4v-3.5c0-0.1,0.1-0.3,0.1-0.4v-6.5c0,0,0,0,0,0c0-0.3,0.3-0.6,0.6-0.6   c0.3,0,0.6,0.3,0.6,0.6V71C125.8,71.4,126,80.3,118.2,81.9z"/>
	<path class="st0" d="M111.5,25c-19.7,0-35.7,16-35.6,35.6c0,19.7,16,35.7,35.6,35.7c19.7,0,35.6-16,35.7-35.7   C147.2,40.9,131.2,25,111.5,25z M111.5,91.5c-17.1,0-30.9-13.8-30.9-30.9s13.8-30.9,30.9-30.9c17.1,0,30.9,13.9,30.9,30.9   c0,0,0,0,0,0C142.5,77.7,128.6,91.5,111.5,91.5z"/>
	<path class="st0" d="M73.5,37.4C73.5,37.4,73.5,37.4,73.5,37.4c0-19.7-16-35.7-35.7-35.7S2.2,17.7,2.2,37.4   c0,19.7,16,35.7,35.7,35.7C57.5,73,73.4,57.1,73.5,37.4z M6.9,37.4c0-17.1,13.8-30.9,30.9-30.9c17.1,0,30.9,13.9,30.9,30.9   c0,17.1-13.8,30.9-30.9,30.9S6.9,54.5,6.9,37.4z"/>
	<path class="st0" d="M53.4,77.1c-19.7,0-35.6,16-35.6,35.6c0,19.7,16,35.7,35.6,35.7c19.7,0,35.6-16,35.7-35.7   C89.1,93,73.1,77.1,53.4,77.1z M84.3,112.7c0,17.1-13.8,30.9-30.9,30.9c-17.1,0-30.9-13.8-30.9-30.9s13.8-30.9,30.9-30.9   C70.5,81.9,84.3,95.7,84.3,112.7C84.3,112.7,84.3,112.7,84.3,112.7z"/>
	<path class="st0" d="M38.5,51.8c-0.4,0.4-0.6,1-0.6,1.6c0,1.3,1,2.4,2.3,2.4c0.6,0,1.2-0.2,1.7-0.6l16-16c0.9-0.9,0.9-2.4,0-3.3   l-16-16c-0.1-0.1-0.1-0.1-0.2-0.2c-1-0.9-2.5-0.8-3.3,0.2c-0.9,1-0.8,2.5,0.2,3.3l12.1,12.1H17.7c-0.1,0-0.2,0-0.3,0   c-1.3,0.1-2.3,1.2-2.2,2.5s1.2,2.3,2.5,2.2h32.6L38.5,51.8z"/>
</g>
</svg>