<svg xmlns="http://www.w3.org/2000/svg" data-src="https://static.ivanti.com/sites/marketing/media/images/icons/devices/smartphone-tablet-content-check-circle.svg" viewBox="0 0 150 150">

<title>IT Asset Management_GRAY</title>
<g>
	<path class="st0" d="M81.7,112.2l24.6,0.2l0,0c2.2,0,4.1-1.8,4.1-4l0.4-52.9c-0.1-1.2-1-2.1-2.2-2.2c-1.3-0.1-2.4,0.9-2.5,2.2   l-0.4,52.2l-23.9-0.2c-1.2,0.1-2.1,1-2.2,2.2C79.4,111,80.4,112.1,81.7,112.2z"/>
	<path class="st0" d="M96.4,39.6c0.1-1.3-0.9-2.4-2.2-2.5l-37.6-0.3c-1.1,0-2.1,0.4-2.9,1.2c-0.8,0.8-1.2,1.8-1.2,2.9l-0.1,8.7   c0,1.3,1,2.4,2.3,2.4c0,0,0.1,0,0.1,0c1.3,0,2.4-1.1,2.3-2.4v-8l37,0.2C95.3,41.8,96.3,40.8,96.4,39.6z"/>
	<path class="st0" d="M38.4,55.7c-1.8,0-3.2,1.4-3.2,3.2l-0.4,49.9c0,1.8,1.4,3.2,3.2,3.2l31.4,0.2c1.7,0,3.2-1.4,3.2-3.1L73,59.1   c0,0,0,0,0,0c0-1.8-1.4-3.2-3.2-3.2L38.4,55.7z M67.9,107.4l-28.3-0.2l0.3-46.8l28.3,0.2L67.9,107.4z"/>
	<path class="st0" d="M123.8,51.9c13.8,0,25-11.2,25-25c0,0,0,0,0,0c0-13.8-11.2-25-25-25c-13.8,0-25,11.2-25,25   C98.8,40.7,110,51.9,123.8,51.9z M123.8,6.7c11.2,0,20.2,9.1,20.2,20.2c0,11.2-9.1,20.2-20.2,20.2s-20.2-9.1-20.2-20.2   S112.6,6.7,123.8,6.7z"/>
	<path class="st0" d="M109.1,28.3l9.5,9.5c0.4,0.4,1,0.7,1.7,0.7c0.6,0,1.3-0.2,1.7-0.7l16-16c0.9-0.9,0.9-2.4,0-3.4   c-0.9-0.9-2.4-0.9-3.4,0l-14.3,14.3l-7.8-7.8c-0.9-0.9-2.4-0.9-3.3,0C108.2,25.9,108.2,27.4,109.1,28.3z"/>
	<path class="st0" d="M145.3,50.7c-0.4-1.2-1.8-1.9-3-1.5c-1.2,0.4-1.9,1.8-1.5,3c4.9,14.4,5,29.9,0.3,44.4   c-12,36.5-51.3,56.4-87.8,44.4S-3.1,89.6,8.9,53.1c12-36.5,51.3-56.4,87.8-44.4c0.3,0.1,1.2,0.5,2,0.8c1.2,0.6,2.6,0.1,3.2-1.1   c0.6-1.2,0.1-2.6-1.1-3.2c-1.1-0.5-2.4-1-2.4-1h-0.1C90.8,1.9,83,0.6,75.1,0.6C34,0.6,0.7,33.9,0.7,75c0,41.1,33.2,74.4,74.3,74.4   c8.2,0,16.4-1.4,24.2-4.1C138.1,131.9,158.7,89.5,145.3,50.7z"/>
	<path class="st0" d="M95,56.8H82.7c-0.1,0-0.2,0-0.3,0c-1.3,0.1-2.3,1.2-2.2,2.5c0.1,1.3,1.2,2.3,2.5,2.2H95c1.2-0.1,2.1-1,2.2-2.2   C97.3,58,96.3,56.9,95,56.8z"/>
	<path class="st0" d="M95,68.4H82.7c-1.3,0-2.4,1.1-2.4,2.4s1.1,2.4,2.4,2.4H95c1.3,0,2.4-1.1,2.4-2.4S96.3,68.4,95,68.4z"/>
	<path class="st0" d="M95,80H82.7c-0.1,0-0.2,0-0.3,0c-1.3,0.1-2.3,1.2-2.2,2.5s1.2,2.3,2.5,2.2H95c1.2-0.1,2.1-1,2.2-2.2   C97.3,81.2,96.3,80.1,95,80z"/>
	<path class="st0" d="M45.7,74h16c0.1,0,0.2,0,0.3,0c1.3-0.1,2.3-1.2,2.2-2.5s-1.2-2.3-2.5-2.2h-16c-1.2,0.1-2.1,1-2.2,2.2   C43.4,72.8,44.4,73.9,45.7,74z"/>
	<path class="st0" d="M45.7,85.6h16c0.1,0,0.2,0,0.3,0c1.3-0.1,2.3-1.2,2.2-2.5s-1.2-2.3-2.5-2.2h-16c-1.2,0.1-2.1,1-2.2,2.2   C43.4,84.4,44.4,85.5,45.7,85.6z"/>
	<path class="st0" d="M53.8,97.2c-1.5,0-2.7,1.2-2.7,2.7c0,1.5,1.2,2.7,2.7,2.7c1.5,0,2.7-1.2,2.7-2.7   C56.5,98.4,55.3,97.2,53.8,97.2z"/>
</g>
</svg>