<svg xmlns="http://www.w3.org/2000/svg" data-src="https://static.ivanti.com/sites/marketing/media/images/icons/misc/magnify-document.svg" viewBox="0 0 150 150">

<title>Search File_GRAY</title>
<g>
	<path class="st0" d="M132.7,25.1l-24.2-24c-0.4-0.4-1-0.7-1.7-0.7H24c-4.2,0-7.6,3.4-7.5,7.6v133.5c0,4.2,3.4,7.6,7.6,7.6H126   c4.2,0,7.6-3.4,7.5-7.6V26.8C133.4,26.1,133.2,25.5,132.7,25.1z M128.7,141.5c0,1.6-1.3,2.8-2.8,2.9H24c-1.6,0-2.8-1.3-2.8-2.9V8   c0-1.6,1.3-2.8,2.8-2.9h81.9l22.8,22.6V141.5z"/>
	<path class="st0" d="M105.5,11L105.5,11c-0.2-1.2-1.1-2.1-2.3-2.2c-1.3-0.1-2.4,0.9-2.5,2.2v19.9c0,1.3,1.1,2.4,2.4,2.4H123   c1.2-0.1,2.1-1,2.2-2.2c0.1-1.3-0.9-2.4-2.2-2.5h-17.5V11z"/>
	<path class="st0" d="M118.6,114.9L89.7,89.6c2.5-3.4,4.3-7.4,5.1-11.8c2.7-15.3-7.4-29.8-22.6-32.6s-29.9,7.4-32.6,22.6   c-2.8,15.3,7.4,29.9,22.6,32.6c1.7,0.3,3.3,0.4,5,0.4c7.4,0,14.3-2.9,19.3-7.8l28.9,25.4c0.4,0.4,1,0.6,1.6,0.6   c0.7,0,1.3-0.3,1.8-0.8C119.7,117.2,119.6,115.7,118.6,114.9z M85,87.9c-0.1,0.1-0.3,0.2-0.4,0.3c-0.1,0.1-0.2,0.2-0.2,0.3   c-4.3,4.8-10.4,7.7-17.1,7.7c-12.9,0-23.4-10.4-23.4-23.3c0-12.9,10.4-23.4,23.3-23.4c1.4,0,2.8,0.1,4.2,0.4   C84.1,52.1,92.5,64.3,90.2,77C89.4,81.2,87.6,84.9,85,87.9z"/>
</g>
</svg>