<svg xmlns="http://www.w3.org/2000/svg" data-src="https://static.ivanti.com/sites/marketing/media/images/icons/devices/tablet-desktop-monitor-lock-graph-magnify.svg" viewBox="0 0 150 150">

<title>Visibility into Desktop_GRAY</title>
<g>
	<path class="st0" d="M23.3,64.8c1.3,0,2.4-1.1,2.4-2.4V34.9c0-0.1,0.1-0.2,0.2-0.2h79.4c0.1,0,0.2,0.1,0.2,0.2v10.4   c0.1,1.2,1,2.1,2.2,2.2c1.3,0.1,2.4-0.9,2.5-2.2V34.9c0-2.8-2.2-5-5-5H26c-2.8,0-5,2.2-5,5v27.5C21,63.8,22,64.8,23.3,64.8z"/>
	<path class="st0" d="M87.7,100.4H67.9V89.5h9.9c0.1,0,0.2,0,0.3,0c1.3-0.1,2.3-1.2,2.2-2.5s-1.2-2.3-2.5-2.2h-23   c-1.2,0.1-2.1,1-2.2,2.2c-0.1,1.3,0.9,2.4,2.2,2.5h8.4v10.9h-8.5c-1.2,0.1-2.1,1-2.2,2.2c-0.1,1.3,0.9,2.4,2.2,2.5h33   c1.2-0.1,2.1-1,2.2-2.2C90,101.7,89,100.5,87.7,100.4z"/>
	<path class="st0" d="M51.2,70c0-1.9-1.5-3.4-3.4-3.5H5.5C3.5,66.6,2,68.1,2,70v31.7c0,1.9,1.5,3.4,3.4,3.5h42c0,0,0,0,0,0   c2.1,0,3.8-1.7,3.8-3.8l-0.1-15.6V70z M6.7,100.4V71.3h39.7v14.4l0.1,14.7H6.7z"/>
	<path class="st0" d="M54.9,44.7v24.2c0,1.3,1.1,2.4,2.4,2.4c1.3,0,2.4-1.1,2.4-2.4V44.7c0-0.1,0-0.2,0-0.3   c-0.1-1.3-1.2-2.3-2.5-2.2C55.8,42.3,54.8,43.4,54.9,44.7z"/>
	<path class="st0" d="M63.2,53.2v15.8c0,1.3,1.1,2.4,2.4,2.4c1.3,0,2.4-1.1,2.4-2.4V53.2c-0.1-1.2-1-2.1-2.2-2.2   C64.4,50.9,63.3,51.9,63.2,53.2z"/>
	<path class="st0" d="M71.5,59v9.9c0,1.3,1.1,2.4,2.4,2.4c1.3,0,2.4-1.1,2.4-2.3V59c-0.1-1.2-1-2.1-2.2-2.2   C72.8,56.7,71.6,57.7,71.5,59z"/>
	<path class="st0" d="M33.6,81.4v-0.6c0-3.9-3.1-7-7-7s-7,3.1-7,7v0.6c-1.2,0.3-2.1,1.4-2.1,2.7V95c0,0,0,0,0,0   c0,1.6,1.3,2.8,2.8,2.8h12.5c0,0,0,0,0,0c1.6,0,2.8-1.3,2.8-2.9V84.2C35.7,82.9,34.8,81.8,33.6,81.4z M26.4,78.8   c1.3-0.1,2.4,0.8,2.5,2.1v0.5h-4.6v-0.5C24.4,79.8,25.3,78.9,26.4,78.8z M31,93.1h-8.8V86H31V93.1z"/>
	<path class="st0" d="M147.8,115.1l-16.3-18.5c2.5-2.8,4.5-6.1,5.6-9.9c4.1-13.7-3.6-28.2-17.3-32.3c-13.7-4.1-28.2,3.6-32.3,17.3   c-4.1,13.7,3.6,28.2,17.3,32.3c2.4,0.7,5,1.1,7.5,1.1c5.6,0,10.8-1.8,15.1-4.9l16.3,18.4c0.5,0.6,1.3,0.9,2.1,0.9   c0.7,0,1.3-0.3,1.8-0.7c0,0,0,0,0,0C148.7,118,148.8,116.3,147.8,115.1z M112.3,100.5c-11.7,0-21.2-9.5-21.2-21.2   s9.5-21.2,21.2-21.2c2.1,0,4.1,0.3,6.1,0.9c11.2,3.4,17.6,15.2,14.3,26.5c-1,3.3-2.8,6.3-5.1,8.7c-0.5,0.1-1,0.3-1.4,0.6   c-0.4,0.4-0.7,0.8-0.8,1.3C121.6,98.9,117.1,100.5,112.3,100.5z"/>
</g>
</svg>