<svg xmlns="http://www.w3.org/2000/svg" data-src="https://static.ivanti.com/sites/marketing/media/images/icons/misc/eye-process-flow.svg" viewBox="0 0 150 150">

<title>Products Identity Director VISUAL WORKFLOWS_GRAY</title>
<g>
	<path class="st0" d="M144.6,118.7h-31.2c-2,0-3.5,1.6-3.5,3.5v21.2c0,2,1.6,3.5,3.5,3.5h31.2c2,0,3.5-1.6,3.5-3.5v-21.2   C148.1,120.3,146.5,118.7,144.6,118.7z M143.4,142.1h-28.6v-18.5h28.6V142.1z"/>
	<path class="st0" d="M40.2,27.7v-7.8h31.6c0.7,0,1.3,0.6,1.3,1.3v14L66,28.1c-0.9-0.9-2.5-0.9-3.4,0c-0.9,0.9-0.9,2.5,0,3.4   l11.2,11.3c0.5,0.4,1.1,0.7,1.7,0.7c0.7,0,1.3-0.3,1.7-0.7l11.2-11.3c0.9-0.9,0.9-2.5,0-3.4c-0.9-0.9-2.5-0.9-3.4,0l-7,7V21.2   c0-3.4-2.7-6.1-6.1-6.1H40.2V6.5c0-1.9-1.6-3.5-3.5-3.5H5.5C3.6,3,2.1,4.6,2.1,6.5v21.1c0,2,1.6,3.5,3.5,3.5h31.2   C38.7,31.1,40.2,29.6,40.2,27.7z M35.4,26.3H6.9V7.8h28.5V26.3z"/>
	<path class="st0" d="M93,120.7c-0.9-0.9-2.5-0.9-3.4,0c-0.9,0.9-0.9,2.5,0,3.4l7,7H80.3c-0.7,0-1.3-0.6-1.3-1.3v-19.1   c0-1.3-1.1-2.4-2.4-2.4c-1.3,0-2.4,1.1-2.4,2.4v19.1c0,3.4,2.7,6.1,6.1,6.1h16.5l-7.2,7.2c-0.4,0.5-0.7,1.1-0.7,1.7   c0,1.3,1.1,2.4,2.4,2.4c0.6,0,1.3-0.3,1.7-0.8l11.2-11.1c0.9-1,0.9-2.5,0-3.4L93,120.7z"/>
	<path class="st0" d="M96,75.7c0.1-4.8-1.8-9.5-5.2-12.9c-3.6-3.6-8.5-5.7-13.6-5.7H77c-10.5,0-19.1,8.2-19.1,18.4   c0,10.4,8.5,18.8,18.9,18.8C87.6,94.3,96,86.1,96,75.7z M62.6,75.5c0-7.5,6.4-13.6,14.2-13.7H77c3.9-0.1,7.7,1.5,10.4,4.3   c2.5,2.6,3.9,6,3.8,9.6c0,7.8-6.3,13.9-14.4,13.9C69,89.6,62.7,83.3,62.6,75.5z"/>
	<path class="st0" d="M76.8,102.4c20-0.1,38.6-10.1,47.3-25.3c0.4-0.7,0.4-1.6,0-2.3C117,61.3,99.2,50.7,81,49.2   c-19.7-1.7-37.9,7-51.2,24.5c-0.6,0.7-0.7,1.8-0.2,2.6c9.9,16.6,26.9,26.1,46.7,26.1H76.8z M34.5,75.2   c15.6-19.5,33.6-22.4,46.1-21.4c13.7,1.2,31.1,9.1,38.7,22c-8.2,13.1-24.7,21.7-42.6,21.8h-0.4C58.7,97.6,43.6,89.5,34.5,75.2z"/>
</g>
</svg>