<svg xmlns="http://www.w3.org/2000/svg" data-src="https://static.ivanti.com/sites/marketing/media/images/icons/misc/cloud-exchange.svg" viewBox="0 0 150 150">

<title>B2B Connectors_GRAY</title>
<g>
	<path class="st0" d="M143.7,66.9c-4.3-6-10.7-10.2-17.9-11.8c-0.2-5.7-1.5-22.2-11.9-32.9c-6-6.3-14.1-9.4-24-9.4   c-9.6,0-23.4,2.5-34.6,23.8c-9.5-5-16.2-3.5-20.3-1.2c-6,3.3-9.8,10.2-10.3,18.7c-8.6,3.7-14.9,8.6-18.8,14.7   c-2.6,4-4.1,8.6-4.1,13.4C1.6,95.8,12.5,107,26.2,107.2h22.7c1.3,0,2.4-1.1,2.4-2.4c0-1.3-1.1-2.4-2.4-2.4H26.2   c-9.5-0.1-17.6-6.9-19.4-16.3C6,81.8,5,67,27.8,57.8c0.9-0.4,1.5-1.2,1.5-2.2c0.1-7.3,3.2-13.5,7.9-16.2c4.8-2.7,10.9-1.8,17.8,2.3   c0.1,0,0.1,0.1,0.2,0.1c1.2,0.6,2.6,0.1,3.1-1.1c10.1-20.7,22.2-23.4,31.5-23.4c8.5,0,15.5,2.7,20.6,8   c11.1,11.4,10.6,31.3,10.6,31.5c0,1.2,0.8,2.2,2,2.4c6.7,1,12.8,4.7,16.7,10.2c3.2,4.5,4.4,10.2,3.4,15.7   c-2,10.6-11.2,17.4-23.4,17.4l-18.3,0c-0.1,0-0.2,0-0.3,0c-1.3,0.1-2.3,1.2-2.2,2.5s1.2,2.3,2.5,2.2h18.3c14.6,0,25.7-8.3,28-21.3   C149.1,79.4,147.6,72.4,143.7,66.9z"/>
	<path class="st0" d="M96.2,122.7l-7.6,7.5v-50c0-0.1,0-0.2,0-0.3c-0.1-1.3-1.2-2.3-2.5-2.2s-2.3,1.2-2.2,2.5v49.3l-6.8-6.9   c-0.1-0.1-0.1-0.1-0.2-0.2c-1-0.9-2.5-0.8-3.3,0.2c-0.9,1-0.8,2.5,0.2,3.3l11.1,11.3c0.4,0.4,1,0.7,1.7,0.7c0.6,0,1.2-0.2,1.7-0.7   l11.3-11.1c0.8-0.9,0.8-2.2,0-3.1C98.6,121.9,97.1,121.8,96.2,122.7z"/>
	<path class="st0" d="M73,93.1c0.4,0.4,1,0.7,1.7,0.7c0.6,0,1.2-0.2,1.7-0.7c0,0,0,0,0,0c0.9-0.9,0.9-2.4,0-3.3L65.2,78.5   c-0.9-0.9-2.4-0.9-3.3,0L50.6,89.6c-0.8,0.9-0.8,2.2,0,3.1c0.9,1,2.4,1.1,3.3,0.2l7.6-7.5v50c0,1.3,1.1,2.4,2.4,2.4   c1.3,0,2.4-1.1,2.4-2.4V86.2L73,93.1z"/>
</g>
</svg>