<svg xmlns="http://www.w3.org/2000/svg" data-src="https://static.ivanti.com/sites/marketing/media/images/icons/misc/barcode.svg" viewBox="0 0 150 150">

<title>Products Asset Manager Essentials BARCODE SCANNING_GRAY</title>
<g>
	<path class="st0" d="M27,64V37.6c0-1.3-1.1-2.4-2.4-2.4c-1.3,0-2.4,1.1-2.4,2.4v26.3c0,1.3,1.1,2.4,2.4,2.4C26,66.3,27,65.3,27,64z   "/>
	<path class="st0" d="M34.8,37.6v26.3c0,1.3,1.1,2.4,2.4,2.4s2.3-1,2.4-2.3V37.6c0-1.3-1.1-2.4-2.4-2.4S34.8,36.3,34.8,37.6z"/>
	<path class="st0" d="M43.9,66.3c1.4,0,2.4-1,2.4-2.3V37.6c0-1.3-1.1-2.4-2.4-2.4c-1.3,0-2.4,1.1-2.4,2.4v26.3   C41.5,65.2,42.6,66.3,43.9,66.3z"/>
	<path class="st0" d="M56.5,66.3c1.3,0,2.4-1,2.4-2.3V37.6c0-1.3-1.1-2.4-2.4-2.4s-2.4,1.1-2.4,2.4v26.3   C54.1,65.2,55.2,66.3,56.5,66.3z"/>
	<path class="st0" d="M68.8,66.3c1.4,0,2.4-1,2.4-2.3V37.6c0-1.3-1.1-2.4-2.4-2.4c-1.3,0-2.4,1.1-2.4,2.4v26.3   C66.4,65.2,67.5,66.3,68.8,66.3z"/>
	<path class="st0" d="M82,66.3c1.3,0,2.4-1,2.4-2.3V37.6c0-1.3-1.1-2.4-2.4-2.4s-2.4,1.1-2.4,2.4v26.3C79.6,65.2,80.7,66.3,82,66.3z   "/>
	<path class="st0" d="M88.8,66.3c1.3,0,2.4-1,2.4-2.3V37.6c0-1.3-1.1-2.4-2.4-2.4c-1.3,0-2.4,1.1-2.4,2.4v26.3   C86.4,65.2,87.5,66.3,88.8,66.3z"/>
	<path class="st0" d="M100.8,66.3c1.3,0,2.4-1,2.4-2.3V37.6c0-1.3-1.1-2.4-2.4-2.4c-1.3,0-2.4,1.1-2.4,2.4v26.3   C98.4,65.2,99.5,66.3,100.8,66.3z"/>
	<path class="st0" d="M113.5,66.3c1.3,0,2.4-1,2.4-2.3V37.6c0-1.2-1-2.1-2.2-2.2c-1.4-0.1-2.5,0.9-2.6,2.2v26.3   C111.1,65.2,112.2,66.3,113.5,66.3z"/>
	<path class="st0" d="M128.5,64V37.6c0-1.3-1.1-2.4-2.4-2.4c-1.3,0-2.4,1.1-2.4,2.4v26.3c0,1.3,1.1,2.4,2.4,2.4   C127.4,66.3,128.4,65.3,128.5,64z"/>
	<path class="st0" d="M27,111.3V84.9c0-1.3-1.1-2.4-2.4-2.4c-1.3,0-2.4,1.1-2.4,2.4v26.4c0,1.3,1.1,2.4,2.4,2.4   C26,113.6,27,112.6,27,111.3z"/>
	<path class="st0" d="M37.2,82.5c-1.3,0-2.4,1.1-2.4,2.4v26.4c0,1.3,1.1,2.4,2.4,2.4s2.3-1.1,2.4-2.4V84.9   C39.6,83.6,38.5,82.5,37.2,82.5z"/>
	<path class="st0" d="M43.9,82.5c-1.3,0-2.4,1.1-2.4,2.4v26.4c0,1.3,1.1,2.4,2.4,2.4c1.4-0.1,2.4-1.1,2.4-2.4V84.9   C46.3,83.6,45.2,82.5,43.9,82.5z"/>
	<path class="st0" d="M56.5,82.5c-1.3,0-2.4,1.1-2.4,2.4v26.4c0,1.3,1.1,2.4,2.4,2.4c1.3-0.1,2.4-1.1,2.4-2.4V84.9   C58.9,83.6,57.8,82.5,56.5,82.5z"/>
	<path class="st0" d="M68.8,82.5c-1.3,0-2.4,1.1-2.4,2.4v26.4c0,1.3,1.1,2.4,2.4,2.4c1.4-0.1,2.4-1.1,2.4-2.4V84.9   C71.2,83.6,70.1,82.5,68.8,82.5z"/>
	<path class="st0" d="M82,82.5c-1.3,0-2.4,1.1-2.4,2.4v26.4c0,1.3,1.1,2.4,2.4,2.4s2.4-1.1,2.4-2.4V84.9   C84.4,83.6,83.3,82.5,82,82.5z"/>
	<path class="st0" d="M88.8,82.5c-1.3,0-2.4,1.1-2.4,2.4v26.4c0,1.3,1.1,2.4,2.4,2.4c1.3-0.1,2.4-1.1,2.4-2.4V84.9   C91.2,83.6,90.1,82.5,88.8,82.5z"/>
	<path class="st0" d="M100.8,82.5c-1.3,0-2.4,1.1-2.4,2.4v26.4c0,1.3,1.1,2.4,2.4,2.4c1.3-0.1,2.4-1.1,2.4-2.4V84.9   C103.2,83.6,102.1,82.5,100.8,82.5z"/>
	<path class="st0" d="M115.9,111.3V84.9c0-1.2-1-2.1-2.2-2.2c-1.4-0.1-2.5,0.9-2.6,2.2v26.4c0,1.3,1.1,2.4,2.4,2.4   S115.9,112.6,115.9,111.3z"/>
	<path class="st0" d="M123.7,84.9v26.4c0,1.3,1.1,2.4,2.4,2.4c1.3,0,2.3-1.1,2.4-2.4V84.9c0-1.3-1.1-2.4-2.4-2.4   C124.8,82.5,123.7,83.6,123.7,84.9z"/>
	<path class="st0" d="M7.8,74.4c0,1.3,1.1,2.4,2.4,2.4h130.3c1.3,0,2.4-1.1,2.4-2.4c0-1.3-1.1-2.4-2.4-2.4H10.2   C8.9,72,7.8,73.1,7.8,74.4z"/>
	<path class="st0" d="M4.3,51.3c1.3,0,2.4-1.1,2.4-2.4V25.1c0-1.8,1.4-3.2,3.2-3.2h23.7c1.3,0,2.4-1.1,2.4-2.4s-1.1-2.4-2.4-2.4H9.9   c-4.4,0-8,3.6-8,8v23.8C1.9,50.2,3,51.3,4.3,51.3z"/>
	<path class="st0" d="M140.8,17.1H117c-1.3,0-2.4,1.1-2.4,2.4s1.1,2.4,2.4,2.4h23.8c1.8,0,3.2,1.5,3.2,3.2v23.8   c0,1.3,1.1,2.4,2.4,2.4c1.4,0,2.4-1.1,2.4-2.5V25.1C148.8,20.7,145.2,17.1,140.8,17.1z"/>
	<path class="st0" d="M33.7,127H9.9c-1.8,0-3.2-1.4-3.2-3.2V100c0-1.2-1-2.1-2.2-2.2C3.1,97.7,2,98.7,1.9,100v23.7c0,4.4,3.6,8,8,8   h23.7c1.4,0,2.4-1,2.5-2.3C36.1,128.1,35,127,33.7,127z"/>
	<path class="st0" d="M146.4,97.6c-1.3,0-2.4,1.1-2.4,2.4v23.7c0,1.8-1.4,3.2-3.2,3.2H117c-1.3,0-2.4,1.1-2.4,2.4s1.1,2.4,2.4,2.4   h23.8c4.4,0,7.9-3.6,8-7.9V100C148.8,98.7,147.7,97.6,146.4,97.6z"/>
</g>
</svg>