<svg xmlns="http://www.w3.org/2000/svg" data-src="https://static.ivanti.com/sites/marketing/media/images/icons/devices/smartphone/smartphone-check.svg" viewBox="0 0 150 150">

<title>Mobile Device Management_GRAY</title>
<g>
	<path class="st0" d="M110.7,0.9H39.2c-5.8,0-10.5,4.7-10.5,10.5V126c0,0.2,0,0.3,0,0.5c0,0.1,0,0.1,0,0.2v12.4   c0,5.8,4.7,10.4,10.5,10.5h71.5c5.8,0,10.4-4.7,10.5-10.5V11.3C121.1,5.5,116.5,0.9,110.7,0.9z M39.2,5.6h71.5   c3.2,0,5.7,2.6,5.7,5.7V124H33.5V11.3C33.5,8.2,36,5.6,39.2,5.6z M110.7,144.9H39.2c-3.2,0-5.7-2.6-5.7-5.7v-10.4h82.9v10.4   C116.4,142.3,113.8,144.9,110.7,144.9z"/>
	<path class="st0" d="M74.9,85.9c13.8,0,25-11.2,25-25s-11.2-25-25-25s-25,11.2-25,25S61.1,85.9,74.9,85.9z M74.9,40.7   c11.2,0,20.2,9.1,20.2,20.2c0,0,0,0,0,0c0,11.2-9.1,20.2-20.2,20.2s-20.2-9.1-20.2-20.2S63.8,40.7,74.9,40.7z"/>
	<path class="st0" d="M71.4,72.5c0.6,0,1.2-0.2,1.7-0.7l16-16c0.1-0.1,0.1-0.1,0.2-0.2c0.9-1,0.8-2.5-0.2-3.3   c-1-0.9-2.5-0.8-3.3,0.2L71.4,66.8L63.6,59c-0.1-0.1-0.2-0.2-0.3-0.3c-1-0.8-2.5-0.7-3.3,0.3c-0.8,1-0.7,2.5,0.3,3.3l9.5,9.5   C70.2,72.3,70.8,72.5,71.4,72.5z"/>
	<circle class="st0" cx="74.9" cy="135.9" r="2.7"/>
</g>
</svg>