<svg xmlns="http://www.w3.org/2000/svg" data-src="https://static.ivanti.com/sites/marketing/media/images/icons/misc/cogs.svg" viewBox="0 0 150 150">

<title>Gears_GRAY</title>
<g>
	<path class="st0" d="M66.9,101.9h-4.5c-0.5-1.8-1.3-3.6-2.2-5.2l3.2-3.2c0.8-0.8,1.2-1.8,1.1-2.9c-0.1-1-0.5-1.9-1.2-2.5L58,82.7   c-0.8-0.8-1.8-1.2-2.9-1.1c-1,0.1-1.9,0.5-2.5,1.2l-3.2,3.1c-1.7-0.9-3.5-1.6-5.3-2.2v-4.5c0,0,0-0.1,0-0.1c0-2.1-1.7-3.7-3.8-3.7   h-7.8c0,0-0.1,0-0.1,0c-2.1,0-3.7,1.7-3.7,3.8v4.5c-1.8,0.5-3.5,1.2-5.2,2.1l-3.2-3.2c-1.4-1.4-3.7-1.4-5.2-0.1l-0.2,0.2l-5.4,5.5   c-0.7,0.6-1.1,1.6-1.2,2.5c0,1.1,0.4,2.1,1.1,2.9l3.1,3c-0.9,1.7-1.7,3.5-2.2,5.3H6.1c-2.1,0-3.8,1.7-3.8,3.8v7.7   c0,2.1,1.7,3.8,3.8,3.9h4.5c0.5,1.8,1.2,3.5,2.1,5.2l-3.2,3.2c-0.8,0.8-1.2,1.8-1.2,2.9c0,1,0.5,1.9,1.2,2.5l5.3,5.3   c0.6,0.7,1.6,1.2,2.5,1.2c1.1,0,2.1-0.4,2.9-1.2l3.1-3.1c1.7,0.9,3.5,1.7,5.3,2.2v4.5c0,0,0,0,0,0.1c0,2.1,1.7,3.7,3.8,3.7h7.8   c0,0,0.1,0,0.1,0c2.1,0,3.7-1.7,3.7-3.8v-4.5c1.8-0.5,3.6-1.3,5.3-2.2l3.1,3.1c0.6,0.7,1.6,1.1,2.5,1.2c1.1,0.1,2.1-0.4,2.9-1.1   l5.4-5.4c0.7-0.6,1.2-1.6,1.2-2.5c0-1.1-0.4-2.1-1.1-2.9l-3.2-3.1c0.9-1.7,1.7-3.5,2.2-5.3h4.5c2.1,0,3.7-1.7,3.8-3.8v-7.8   C70.6,103.6,69,102,66.9,101.9z M65.9,112.5h-5.3c-1.1,0-2.1,0.8-2.3,1.9c-0.6,2.6-1.6,5.1-3,7.3c-0.6,0.9-0.5,2.2,0.3,2.9l3.8,3.8   l-4.1,4.1l-3.8-3.8c-0.8-0.8-2-0.9-2.9-0.3c-2.2,1.4-4.7,2.4-7.3,3c-1.1,0.2-1.9,1.2-1.9,2.3v5.4h-5.9l0-5.3c0-1.1-0.8-2.1-1.9-2.3   c-2.6-0.6-5-1.6-7.2-3c-0.9-0.6-2.2-0.5-3,0.3l-3.8,3.8l-4.1-4.1l3.8-3.8c0.8-0.8,0.9-2,0.3-2.9c-1.4-2.2-2.4-4.6-2.9-7.1   c-0.2-1.1-1.2-1.9-2.3-1.9H7v-5.9h5.4c1.1,0,2.1-0.8,2.3-1.9c0.5-2.6,1.6-5.1,3-7.3c0.6-1,0.5-2.2-0.3-3l-3.8-3.7l4.1-4.2l3.8,3.8   c0.8,0.8,2,0.9,2.9,0.3c2.2-1.4,4.6-2.4,7.1-2.9c1.1-0.2,1.9-1.2,1.9-2.3v-5.4h5.8v5.3c0,1.1,0.8,2.1,1.9,2.3c2.6,0.6,5,1.6,7.2,3   c0.9,0.6,2.1,0.5,2.9-0.3l3.9-3.8l4.1,4.1l-3.8,3.8c-0.8,0.8-0.9,2-0.3,2.9c1.4,2.2,2.4,4.6,3,7.2c0.2,1.1,1.2,1.9,2.3,1.9h5.4   V112.5z"/>
	<path class="st0" d="M36.1,98.7c-6.1,0-11.1,5-11.1,11.1c0,6.1,5,11.1,11.1,11.1c6.1,0,11.1-5,11.1-11.1c0,0,0,0,0,0   C47.2,103.7,42.2,98.7,36.1,98.7z M36.1,116.2c-3.5,0-6.4-2.9-6.4-6.4s2.9-6.4,6.4-6.4s6.4,2.9,6.4,6.4S39.6,116.2,36.1,116.2z"/>
	<path class="st0" d="M147.4,46.8l-3.6-11.4c-0.8-2.4-3.3-3.7-5.7-3l-7.5,2.3c-1.8-2.9-4.1-5.6-6.6-7.9l3.7-7   c0.6-1.2,0.7-2.5,0.3-3.8c-0.4-1.1-1.2-2-2.3-2.4l-10.4-5.5c-1.2-0.6-2.5-0.7-3.7-0.3c-1.1,0.4-2,1.2-2.5,2.3l-3.7,6.9   c-3.4-0.8-6.9-1.1-10.4-0.9l-2.3-7.5c-0.4-1.2-1.2-2.1-2.2-2.7c-1.1-0.6-2.3-0.7-3.5-0.3L75.7,9.2c0,0,0,0-0.1,0   c-2.4,0.8-3.7,3.3-2.9,5.7l2.3,7.5c-2.9,1.8-5.5,4-7.8,6.5l-7-3.7c-2.2-1.1-4.8-0.3-6,1.7L54,27.2l-5.4,10.5   c-0.6,1-0.8,2.2-0.5,3.3c0.3,1.3,1.2,2.3,2.4,2.9l6.9,3.6c-0.8,3.4-1.1,7-0.9,10.5l-7.5,2.4c-2.4,0.8-3.7,3.3-3,5.7l3.5,11.2   c0.4,1.2,1.2,2.1,2.2,2.7c1.1,0.6,2.3,0.8,3.5,0.4l7.6-2.4c1.8,2.9,4,5.5,6.5,7.8l-3.7,7c-0.6,1.2-0.7,2.5-0.3,3.7   c0.4,1.1,1.2,2,2.3,2.4l10.3,5.4c1,0.6,2.2,0.8,3.3,0.5c1.3-0.4,2.3-1.2,2.9-2.4l3.6-6.9c3.4,0.8,6.9,1.1,10.4,1l2.4,7.5   c0.6,1.9,2.3,3.2,4.3,3.2c0.5,0,0.9-0.1,1.4-0.2l11.4-3.6c1.2-0.3,2.1-1.1,2.7-2.2c0.5-1.1,0.7-2.3,0.3-3.4c0-0.1,0-0.1,0-0.1   l-2.3-7.5c2.9-1.9,5.6-4.1,8-6.7l6.9,3.6c1,0.6,2.2,0.8,3.3,0.5c1.3-0.3,2.3-1.2,2.9-2.4l5.5-10.4c0.6-1,0.8-2.2,0.5-3.3   c-0.3-1.3-1.2-2.3-2.4-2.9l-6.9-3.6c0.8-3.4,1.1-6.9,0.9-10.4l7.4-2.3C146.8,51.8,148.1,49.2,147.4,46.8z M133.8,50.8   c-1.1,0.3-1.7,1.4-1.7,2.5c0.4,4.2,0,8.4-1.1,12.5c-0.3,1.1,0.2,2.3,1.2,2.8l8.4,4.4l-5.4,10.1l-8.5-4.4c-1-0.5-2.2-0.3-2.9,0.6   c-2.7,3.2-6,5.9-9.6,8c-1,0.5-1.4,1.7-1.1,2.8l2.8,9.1l-11,3.5l-2.8-9.1c-0.3-1-1.2-1.7-2.3-1.7l-0.2,0.1c-4.2,0.4-8.4,0-12.5-1.1   C86.1,90.5,85,91,84.5,92l-4.4,8.4L69.9,95l4.4-8.5c0.5-1,0.3-2.2-0.6-2.9c-3.2-2.7-5.8-5.9-7.9-9.5c-0.6-1-1.7-1.4-2.8-1.1   l-9.2,2.9l-3.4-11l9.1-2.9c1-0.3,1.7-1.3,1.7-2.4c-0.4-4.2,0-8.5,1.1-12.6c0.3-1.1-0.2-2.3-1.2-2.8l-8.4-4.3l5.3-10.3l8.5,4.4   c1,0.5,2.2,0.3,2.9-0.6c2.7-3.2,5.9-5.8,9.5-7.9c1-0.5,1.5-1.7,1.2-2.8l-2.9-9.1l11-3.4l2.8,9.1c0.3,1.1,1.4,1.8,2.5,1.7   c4.2-0.4,8.4,0,12.4,1.1c1.1,0.3,2.2-0.2,2.7-1.2l4.5-8.5l10.2,5.3l-4.5,8.5c-0.5,1-0.3,2.2,0.6,2.9c3.2,2.7,5.9,5.9,8,9.5   c0.6,1,1.7,1.4,2.8,1.1l9.1-2.8l3.4,11L133.8,50.8z"/>
	<path class="st0" d="M91.5,41.7c-8.3,2.6-13,11.5-10.4,19.8c2.1,6.6,8.2,11.1,15.1,11.1c1.6,0,3.2-0.2,4.7-0.7c0,0,0,0,0,0   c8.3-2.6,13-11.5,10.4-19.8C108.7,43.8,99.8,39.1,91.5,41.7z M99.5,67.4c-5.8,1.8-12-1.4-13.9-7.3c-1.8-5.8,1.4-12,7.3-13.9   c5.8-1.8,12,1.4,13.9,7.3C108.6,59.4,105.3,65.6,99.5,67.4z"/>
</g>
</svg>