<svg xml:space="preserve" id="Layer_1" viewBox="0 0 40.7 30" style="enable-background:new 0 0 40.7 30;" x="0px" y="0px" xmlns="http://www.w3.org/2000/svg" xmlns:xlink="http://www.w3.org/1999/xlink" version="1.1"><path d="M34.5,30h-13l-1.8-2.8l0.2-0.9c1-3.8,2.4-8,4.1-12.5c1.7-4.6,3.5-8.8,5.3-12.7L29.9,0h10.8l-0.6,2.5c-1,4.1-2,8.5-3,13.3  l0,0.1c-1,4.7-1.8,8.8-2.3,12.5L34.5,30z M22.6,28l10.2,0c0.6-3.7,1.4-7.9,2.4-12.6l0-0.1c1-4.8,2-9.3,3-13.3h-7  c-1.8,3.8-3.6,8-5.3,12.5c-1.7,4.4-3.1,8.6-4.1,12.3L22.6,28z M14.6,30h-13L0,27.1l0.2-0.8c1-3.8,2.4-8,4-12.5C6,9.3,7.8,5,9.6,1.2  L10.1,0h10.7l-0.6,2.5c-1,4.1-2,8.5-3,13.3c-1,4.7-1.8,8.9-2.3,12.5L14.6,30z M2.8,28l10.1,0c0.6-3.7,1.4-7.9,2.4-12.6  c1-4.8,2-9.3,3-13.4h-6.9c-1.8,3.8-3.6,8-5.3,12.5c-1.6,4.4-3,8.6-4,12.3L2.8,28z"/></svg>