<svg xmlns="http://www.w3.org/2000/svg" data-src="https://static.ivanti.com/sites/marketing/media/images/icons/misc/cog-refresh.svg" viewBox="0 0 150 150">

<title>Automated Automation Workflow_GRAY</title>
<g>
	<path class="st0" d="M40,66.9c-2.2,0-4,1.8-4,4v8.9c0,2.2,1.8,4.1,4,4.1h5.5c0.6,2.2,1.5,4.4,2.6,6.4l-3.9,3.9   c-0.8,0.8-1.3,1.9-1.2,3.1c0,1,0.5,2,1.3,2.7l6.2,6.2c0.7,0.8,1.7,1.2,2.7,1.3c1.1,0,2.3-0.4,3.1-1.2l3.8-3.8   c2.1,1.2,4.3,2.1,6.6,2.7v5.5c0,2.2,1.8,4,4,4h9c0,0,0,0,0,0c2.2,0,4-1.8,4-4v-5.5c2.3-0.6,4.5-1.6,6.6-2.7l3.8,3.8   c0.7,0.8,1.7,1.2,2.7,1.3c1.1,0,2.3-0.4,3.1-1.2l6.2-6.3c0.8-0.7,1.2-1.7,1.3-2.7c0-1.1-0.4-2.3-1.2-3.1l-3.8-3.8   c1.2-2.1,2.1-4.3,2.7-6.6h5.5c2.2,0,4-1.8,4-4v-9c0-2.2-1.8-4-4-4h-5.5c-0.6-2.3-1.5-4.4-2.7-6.5l3.9-3.9c0.8-0.8,1.3-1.9,1.2-3.1   c0-1-0.5-2-1.3-2.7l-6.3-6.3c-0.8-0.8-2-1.3-3.1-1.2c-1,0-2,0.5-2.7,1.3l-3.9,3.8c-2.1-1.2-4.3-2.1-6.6-2.7v-5.5c0-2.2-1.8-4-4-4   h-9c-2.2,0-4,1.8-4,4v5.5c-2.2,0.6-4.4,1.5-6.4,2.6l-3.9-3.9c-1.5-1.5-3.9-1.5-5.5-0.1c-0.1,0-0.1,0.1-0.2,0.2l-6.2,6.4   c-0.8,0.7-1.2,1.6-1.3,2.7c0,1.1,0.4,2.3,1.2,3.1l3.8,3.8c-1.2,2.1-2.1,4.3-2.7,6.6H40z M49.7,69.8c0.7-3.1,1.9-6,3.5-8.6   c0.6-0.9,0.5-2.2-0.3-3l-4.6-4.6l5.3-5.4l4.7,4.7c0.8,0.8,2,0.9,2.9,0.3c2.6-1.6,5.4-2.8,8.4-3.5c1.1-0.2,1.9-1.2,1.9-2.3v-6.6H79   v6.6c0,1.1,0.8,2.1,1.9,2.3c3,0.6,5.9,1.8,8.5,3.5c0.9,0.6,2.1,0.5,2.9-0.3l4.8-4.7l5.3,5.3l-4.7,4.7c-0.8,0.8-0.9,2-0.3,2.9   c1.7,2.6,2.8,5.5,3.5,8.5c0.2,1.1,1.2,1.9,2.3,1.9h6.6V79h-6.5c-1.1,0-2.1,0.8-2.3,1.8c-0.6,3-1.8,5.9-3.5,8.6   c-0.6,0.9-0.5,2.2,0.3,3l4.7,4.6l-5.4,5.4l-4.7-4.6c-0.8-0.8-2-0.9-2.9-0.3c-2.6,1.7-5.5,2.9-8.5,3.5c-1.1,0.2-1.9,1.2-1.9,2.3v6.6   h-7.5l0-6.6c0-1.1-0.8-2.1-1.9-2.3c-3-0.7-5.9-1.9-8.5-3.5c-0.9-0.6-2.2-0.5-3,0.3l-4.6,4.6L48.2,97l4.7-4.7c0.8-0.8,0.9-2,0.3-2.9   c-1.6-2.6-2.8-5.4-3.5-8.4c-0.3-1.1-1.2-1.8-2.3-1.8h-6.6v-7.5h6.6C48.5,71.6,49.5,70.9,49.7,69.8z"/>
	<path class="st0" d="M137.2,79.6c-1.3-0.2-2.5,0.7-2.7,2c-3,26.9-23.8,48.4-50.7,52.2c-31.4,4.4-60.5-16.5-66.5-47.2l12.3,6.6   c1.2,0.6,2.6,0.2,3.2-1c0.6-1.2,0.2-2.6-1-3.2l-18.1-9.7c0,0,0,0,0,0c-1.2-0.6-2.6-0.1-3.2,1L1,98.4c-0.2,0.3-0.3,0.7-0.3,1.1   c0,1.3,1,2.4,2.3,2.4c0.9,0,1.7-0.5,2.1-1.3l7.4-13.9c5.5,30.2,31.9,52.4,62.9,52.4l1.9,0c31.9-1,58.2-25.2,61.8-56.9   C139.4,80.9,138.5,79.8,137.2,79.6z"/>
	<path class="st0" d="M147.9,47.6c-1.2-0.6-2.6-0.2-3.2,1L138.1,61c-5.8-25.9-27.2-45.8-53.8-49.4C49.2,6.8,17,31.4,12.2,66.4   c-0.2,1.3,0.7,2.5,2,2.7h0.3c1.2,0,2.2-0.9,2.3-2.1c3.5-25.9,23.6-46.4,49.3-50.6c31.6-5.1,61.4,15.8,67.6,46.9L120.2,56   c-1.2-0.6-2.6-0.2-3.2,1c-0.6,1.2-0.2,2.6,1,3.2l18.1,9.7c0.3,0.2,0.7,0.3,1.1,0.3c0.9,0,1.7-0.5,2.1-1.2l9.7-18.1   C149.5,49.7,149.1,48.2,147.9,47.6z"/>
	<path class="st0" d="M74.9,88c6.9,0,12.5-5.6,12.5-12.5c0-6.9-5.6-12.5-12.5-12.5c-6.9,0-12.5,5.6-12.5,12.5   C62.4,82.4,68,88,74.9,88z M74.9,67.8L74.9,67.8c4.3,0,7.8,3.5,7.8,7.8c0,0,0,0,0,0c0,4.3-3.5,7.8-7.8,7.8c-4.3,0-7.8-3.5-7.8-7.8   C67.1,71.2,70.6,67.8,74.9,67.8z"/>
</g>
</svg>