<svg xmlns="http://www.w3.org/2000/svg" data-src="https://static.ivanti.com/sites/marketing/media/images/icons/misc/laptop-hand-holding-money-bag-down-arrow.svg" viewBox="0 0 150 150">

<title>Decrease IT Cost_GRAY</title>
<g>
	<path class="st0" d="M146.3,128.6H3.8c-1.3,0-2.4,1.1-2.4,2.4s1.1,2.4,2.4,2.4h142.5c1.3,0,2.4-1.1,2.4-2.4   S147.6,128.6,146.3,128.6z"/>
	<path class="st0" d="M21.2,119.7h107.7c3.3,0,6-2.7,6-6v-73c0-3.3-2.7-6-6-6H93.4c-1.3,0-2.4,1.1-2.4,2.4c0,1.3,1.1,2.4,2.4,2.4   h35.4c0.7,0,1.3,0.6,1.3,1.3v73c0,0.7-0.6,1.3-1.3,1.3H21.2c-0.7,0-1.3-0.6-1.3-1.3v-73c0-0.7,0.6-1.3,1.3-1.3H55   c1.3,0,2.4-1.1,2.4-2.4c0-1.3-1.1-2.4-2.4-2.4H21.2c-3.3,0-6,2.7-6,6v73C15.2,117,17.9,119.7,21.2,119.7z"/>
	<path class="st0" d="M85.4,37.2c0.1-1.3-0.9-2.4-2.2-2.5H64.4c-1.2,0.1-2.1,1-2.2,2.2c-0.1,1.3,0.9,2.4,2.2,2.5h18.8   C84.4,39.4,85.3,38.4,85.4,37.2z"/>
	<path class="st0" d="M58.1,25c3.2,2.2,6.2,5.4,6.2,6.5c0,0,0,0,0,0c0,1.3,1.1,2.4,2.4,2.4c0,0,0,0,0.1,0c1.3,0,2.4-1.1,2.4-2.4   c0-2-1.3-4-2.8-5.7c3.4,1.6,7.9,2.8,11.3-0.8c3.1-3.2,5.8-3.7,7.1-3.2c0.3,0.1,0.6,0.3,0.8,0.6c-2.5,1.9-6.5,5.5-6.5,9.1   c0.1,1.2,1,2.1,2.2,2.2c1.3,0.1,2.4-0.9,2.5-2.2c0-1.2,2.8-4.1,5.8-6.2c0.6-0.5,1-1.2,1-2c0-2.6-1.6-5-4-6   c-3.7-1.5-8.3,0.1-12.3,4.3c-1.7,1.8-4.5,0.6-8.1-1.3c-2.7-1.3-5-2.6-7-1.3c-1.2,0.8-1.8,2.1-1.8,4C57.1,23.8,57.4,24.6,58.1,25z"/>
	<path class="st0" d="M87.7,45.7c-1.8-1.2-4.3-2.8-4.5-3.5c-0.1-1.2-1-2.1-2.2-2.2c-1.3-0.1-2.4,0.9-2.5,2.2c0,3.1,2.9,5,6.7,7.5   C91,53.5,99,58.7,99,70.2c0,6.7-2.4,10.9-3.1,11.9c-2.6,0.5-5.9,1.5-9.9,3.1c-4.2-0.1-8.8-0.2-10.8-0.2c-1.6-0.1-3.1,0.7-4,2   c-1,1.5-0.9,3.4-0.6,5c-0.5,0.2-0.9,0.5-1.3,0.6c-2.5-1-9.5-3.6-15.6-6c-1.3-1.6-5.8-7.8-5.8-14.7c0-11.5,8.4-17.5,14.5-21.9   c3.9-2.8,6.8-4.9,6.8-7.9c0-1.3-1-2.4-2.4-2.4c0,0,0,0,0,0c-1.3,0-2.3,1-2.3,2.3c-0.2,0.8-2.9,2.7-4.8,4.1   C53.1,50.9,43.2,58,43.2,71.9c0,4.5,1.5,8.7,3.2,11.9c-1.1-0.4-2-0.7-2.5-0.9c-1.5-0.6-3.2-0.4-4.4,0.6c-2.4,1.9-2.3,5.9-2.2,7.2   c0.1,0.8,0.6,1.6,1.3,1.9L67.3,107c0.3,0.2,0.7,0.3,1.1,0.2l0,0l43-0.7c0.8,0,1.6-0.4,2-1.1l10.4-17.1c0.4-0.6,0.4-1.4,0.2-2.1   c-0.3-0.7-0.9-1.2-1.6-1.4c-0.5-0.1-12.1-2.9-20.9-3.1c1.1-2.6,2.3-6.4,2.3-11.5C103.7,56.2,94,49.9,87.7,45.7z M110,101.8   l-41.1,0.7L41.9,89c0-0.5,0.1-1.1,0.3-1.6h0.1c4,1.4,26.1,9.9,26.3,10c0.6,0.2,1.3,0.2,1.9-0.1c0,0,1.1-0.6,2.9-1.4l26.4,3.3h0.3v0   c1.3,0.1,2.4-0.9,2.5-2.2c0.1-1.3-0.9-2.4-2.2-2.5l-25.1-3.2c-0.2-0.5-0.2-1.1-0.2-1.6c2.1,0,6.7,0.1,11,0.2c0.1,0,0.1,0,0.2,0   c4.5,0.1,8.6,0.3,8.7,0.3c1.2,0,2.2-1,2.3-2.2c0-0.5-0.1-0.9-0.3-1.3c0.7-0.1,1.3-0.2,1.8-0.2c5.8-0.3,14.5,1.2,19.2,2.2L110,101.8   z"/>
	<path class="st0" d="M74.5,50.8c-1.3-0.1-2.4,0.9-2.5,2.2v18.7l-2.9-3c-0.9-0.9-2.4-0.9-3.3,0c-0.9,0.9-0.9,2.4,0,3.3l7.2,7.2   c0.4,0.4,1,0.7,1.7,0.7c0.6,0,1.2-0.2,1.7-0.6l7.3-7.2c0.9-0.9,0.9-2.4,0-3.3c-0.9-0.9-2.4-0.9-3.3,0l-3.4,3.4V53   C76.7,51.8,75.7,50.9,74.5,50.8z"/>
</g>
</svg>