<svg xmlns="http://www.w3.org/2000/svg" data-src="https://static.ivanti.com/sites/marketing/media/images/icons/misc/document-flow-chart-magnify.svg" viewBox="0 0 150 150">

<title>Products Automation AUDIT TRAILS_GRAY</title>
<g>
	<path class="st0" d="M125.3,11.3H53.3c-3.8,0-6.9,3.1-6.9,6.9V52c0.1,1.2,1,2.2,2.2,2.2c1.3,0.1,2.5-0.9,2.6-2.2V18.2   c0-1.1,0.9-2.1,2.1-2.1h70.1l19.3,19.2v97.4c0,1.1-0.9,2.1-2.1,2.1H53.3c-1.1,0-2.1-0.9-2.1-2.1V78.3c-0.1-1.2-1-2.2-2.2-2.2   c-1.3-0.1-2.5,0.9-2.6,2.2v54.5c0,3.8,3.1,6.9,6.9,6.9h87.3c3.8,0,6.9-3.1,6.9-6.9V33.3L125.3,11.3z"/>
	<path class="st0" d="M121,18.4c-1.3,0-2.4,1.1-2.4,2.4v19.4H138c0.1,0,0.2,0,0.3,0c1.3-0.1,2.3-1.2,2.2-2.5   c-0.1-1.3-1.2-2.3-2.5-2.2h-14.6V20.8C123.4,19.5,122.3,18.4,121,18.4z"/>
	<path class="st0" d="M82.1,51.9c-1.2,0.6-1.7,2-1.1,3.2s2,1.7,3.2,1.1c6.9-3.3,15-3.1,21.6,0.7c11.2,6.3,15.2,20.5,8.9,31.8   c-0.7,1.3-1.6,2.5-2.6,3.7c-0.1,0.1-0.3,0.2-0.4,0.3c-0.1,0.1-0.2,0.3-0.3,0.4c-7.2,7.7-18.9,9.9-28.5,4.5   c-11.2-6.3-15.2-20.5-8.9-31.8c0.7-1.2,0.2-2.6-0.9-3.3c-1.2-0.7-2.6-0.2-3.3,0.9c-2.4,4.2-3.6,8.9-3.6,13.7   c0,15.5,12.6,28.2,28.1,28.2c4.2,0,8.4-1,12.2-2.8c2.7-1.3,5.1-3,7.1-4.9l17.8,15.7c0.4,0.4,1,0.6,1.6,0.6c0.7,0,1.4-0.3,1.8-0.8   c0,0,0,0,0,0c0.9-1,0.8-2.5-0.2-3.4l-17.8-15.7c6.1-8.1,7.5-19.3,2.7-29.1C112.9,50.9,96.1,45.1,82.1,51.9z"/>
	<path class="st0" d="M61.2,53.5c1.2,0.6,2.6,1,4.1,1c1.4,0,2.8-0.3,4-0.9l17,18.4c-0.6,1.2-1,2.6-1,4.1c0,5,4.1,9.1,9.1,9.1   c5,0,9.1-4.1,9.1-9.1c0,0,0,0,0,0c0-5-4.1-9.1-9.1-9.1c-1.8,0-3.5,0.5-4.9,1.5L72.9,50.4c1-1.4,1.5-3.2,1.5-5c0-5-4.1-9.1-9.1-9.1   s-9.1,4.1-9.1,9.1c0,1.8,0.5,3.5,1.5,4.9L35.1,76.9c-1.3-0.8-2.9-1.2-4.6-1.2c-1.5,0-3,0.4-4.2,1.1l-8-10.2c1.3-1.6,2-3.6,2-5.7   c0-5-4.1-9.1-9.1-9.1c-5,0-9.1,4.1-9.1,9.1c0,5,4.1,9.1,9.1,9.1c1.1,0,2.2-0.2,3.2-0.6L22.7,80c-0.9,1.4-1.4,3-1.4,4.8   c0,5,4.1,9.1,9.1,9.1c5,0,9.1-4.1,9.1-9.1c0,0,0,0,0,0c0-1.6-0.4-3.1-1.2-4.4L61.2,53.5z M94.4,71.6C94.4,71.6,94.4,71.6,94.4,71.6   c2.4,0,4.3,2,4.3,4.4c0,2.4-1.9,4.3-4.3,4.3c-2.4,0-4.3-1.9-4.3-4.3C90.1,73.6,92,71.6,94.4,71.6z M65.3,41L65.3,41   c2.4,0,4.3,1.9,4.3,4.3c0,2.4-1.9,4.3-4.3,4.3s-4.3-1.9-4.3-4.3C60.9,43,62.9,41,65.3,41z M6.8,60.7c0-2.4,1.9-4.3,4.3-4.3   c2.4,0,4.3,1.9,4.3,4.3c0,2.4-1.9,4.3-4.3,4.3S6.8,63.1,6.8,60.7z M34.8,84.8c0,2.4-1.9,4.3-4.3,4.3c-2.4,0-4.3-1.9-4.3-4.3   c0-2.4,1.9-4.3,4.3-4.3C32.9,80.4,34.8,82.4,34.8,84.8C34.8,84.8,34.8,84.8,34.8,84.8z"/>
</g>
</svg>