<svg xmlns="http://www.w3.org/2000/svg" data-src="https://static.ivanti.com/sites/marketing/media/images/icons/people/people-scale.svg" viewBox="0 0 150 150">

<title>new icons</title>
<path class="st0" d="M136.61,105.24c-0.41-1.43-1.39-2.64-2.71-3.33c-11.16-5.95-23.16-10.17-35.59-12.51v-0.05l-2.46-0.41  c-14.36-2.4-29.04-2.27-43.35,0.41l-2.45,0.45l0,0c-12.36,2.53-24.27,6.91-35.32,13c-1.36,0.75-2.35,2.03-2.73,3.53  c-0.4,1.45-0.2,3,0.57,4.29l5,8.51c0.45,0.77,1.27,1.23,2.16,1.23c0.45,0,0.89-0.13,1.27-0.36c1.19-0.7,1.59-2.23,0.89-3.42l-5-8.5  c-0.08-0.13-0.1-0.29-0.06-0.44c0.04-0.17,0.16-0.31,0.31-0.39C27.73,101.41,39.15,97.2,51,94.77L52.86,105  c0.25,1.36,1.56,2.26,2.92,2s2.26-1.56,2-2.92l-1.9-10.25c12.13-2,24.5-2.12,36.67-0.35l-1.86,11.11c-0.23,1.36,0.69,2.65,2.05,2.88  c0,0,0,0,0.01,0c0.14,0.01,0.27,0.01,0.41,0c1.22,0,2.26-0.89,2.46-2.09l1.86-11.09c11.9,2.25,23.39,6.3,34.07,12  c0.13,0.07,0.22,0.18,0.26,0.32c0.04,0.16,0.02,0.32-0.06,0.46l-4.91,8.68c-0.68,1.2-0.26,2.73,0.94,3.41s2.73,0.26,3.41-0.94  l4.91-8.68C136.84,108.24,137.02,106.69,136.61,105.24z"/>
<path class="st0" d="M112.6,108l-18.75,15.17c-1.07,0.87-1.24,2.45-0.37,3.52c0.87,1.07,2.45,1.24,3.52,0.37l12.38-10l3.19,15.39  c0.24,1.16,1.26,2,2.45,2c0.17,0.01,0.34,0.01,0.51,0c1.36-0.28,2.23-1.61,1.95-2.97c0-0.01,0-0.02-0.01-0.03L112.6,108z"/>
<path class="st0" d="M47,78.48c0,1.38,1.12,2.5,2.5,2.5s2.5-1.12,2.5-2.5V67.74c0-5.92,4.82-10.56,11-10.56h21.29  c6.06,0,11.18,4.84,11.18,10.56v10.74c0,1.38,1.12,2.5,2.5,2.5s2.5-1.12,2.5-2.5V67.74c0-8.58-7.26-15.56-16.18-15.56H63  c-9,0-16,6.82-16,15.56V78.48z"/>
<path class="st0" d="M73.73,45c7.73,0.04,14.04-6.19,14.08-13.92c0-0.08,0-0.15,0-0.23c-0.02-7.79-6.36-14.09-14.15-14.07  c-7.79,0.02-14.09,6.36-14.07,14.15C59.61,38.72,65.94,45.02,73.73,45z M73.73,21.69c5.06,0.17,9.02,4.4,8.85,9.46  c-0.16,4.82-4.03,8.69-8.85,8.85c-5.06-0.17-9.02-4.4-8.85-9.46C65.04,25.72,68.91,21.85,73.73,21.69z"/>
<path class="st0" d="M108.82,51.85c5.72,0.01,10.35-4.62,10.36-10.34s-4.62-10.35-10.34-10.36c-5.72-0.01-10.35,4.62-10.36,10.34  c0,0.02,0,0.04,0,0.06C98.51,47.24,103.13,51.84,108.82,51.85z M108.82,36.16c2.95-0.13,5.45,2.16,5.58,5.11  c0.13,2.95-2.16,5.45-5.11,5.58c-0.15,0.01-0.31,0.01-0.46,0c-2.95-0.13-5.24-2.62-5.11-5.58C103.83,38.5,106.05,36.28,108.82,36.16  z"/>
<path class="st0" d="M108.75,59.68c-1.38,0-2.5,1.12-2.5,2.5s1.12,2.5,2.5,2.5h8.44c3.58,0.04,6.47,2.93,6.52,6.51v14.87  c0,1.38,1.11,2.5,2.5,2.5s2.5-1.11,2.5-2.5c0,0,0-0.01,0-0.01V71.19c-0.08-6.33-5.19-11.43-11.52-11.51H108.75z"/>
<path class="st0" d="M38.59,51.85c5.72-0.02,10.34-4.66,10.32-10.38s-4.66-10.34-10.38-10.32s-10.34,4.66-10.32,10.38  c0,0.01,0,0.01,0,0.02c0.02,5.71,4.65,10.32,10.36,10.3C38.58,51.85,38.58,51.85,38.59,51.85z M38.59,36.16  c2.95,0.02,5.34,2.43,5.32,5.38s-2.43,5.34-5.38,5.32c-2.93-0.02-5.3-2.38-5.32-5.31c-0.01-2.97,2.38-5.38,5.35-5.39  C38.57,36.16,38.58,36.16,38.59,36.16z"/>
<path class="st0" d="M21.2,88.56c1.38,0,2.5-1.12,2.5-2.5V71.19c0.05-3.58,2.94-6.47,6.52-6.51h8.44c1.38,0,2.5-1.12,2.5-2.5  s-1.12-2.5-2.5-2.5h-8.44c-6.32,0.08-11.43,5.19-11.52,11.51v14.87C18.7,87.44,19.82,88.56,21.2,88.56z"/>
</svg>