<svg xmlns="http://www.w3.org/2000/svg" data-src="https://static.ivanti.com/sites/marketing/media/images/icons/misc/clipboard-checklist.svg" viewBox="0 0 150 150">

<title>Solutions Ransomware Malware Protection COMPLIANCE YOU CAN PROVE_GRAY</title>
<g>
	<path class="st0" d="M98.8,60.3H69.1c-1.3,0-2.4,1.1-2.4,2.4s1.1,2.4,2.4,2.4h29.7c1.3,0,2.4-1.1,2.4-2.4   C101.2,61.4,100.1,60.3,98.8,60.3z"/>
	<path class="st0" d="M98.8,91H69.1c-1.3,0-2.4,1.1-2.4,2.4c0,1.3,1.1,2.4,2.4,2.4h29.7c1.3,0,2.4-1.1,2.4-2.4   C101.2,92.1,100.1,91,98.8,91z"/>
	<path class="st0" d="M69.1,121.7c-1.3,0-2.4,1.1-2.4,2.4c0,1.3,1.1,2.4,2.4,2.4h29.7c1.3,0,2.4-1.1,2.4-2.4c0-1.3-1.1-2.4-2.4-2.4   H69.1z"/>
	<path class="st0" d="M36.9,41.8c0,1.3,1.1,2.4,2.4,2.4h70c1.4-0.1,2.4-1.1,2.4-2.5c-0.2-18-15.8-18.2-16-18.2h-4.8v-5   C90.9,9.4,84,2,75.5,2S60.1,9.4,60.1,18.5v5h-5.9C48.2,23.8,37,28,36.9,41.8z M62.6,28.3c1.3,0,2.4-1.1,2.4-2.4v-7.4   C65,12,69.8,6.8,75.6,6.8c5.8,0,10.6,5.3,10.6,11.7v7.4c0,1.3,1.1,2.4,2.4,2.4h7.2c0.4,0.1,9.7,0.1,11,11.1H41.9   c1.4-10,11.1-11,12.6-11.1H62.6z"/>
	<path class="st0" d="M122,14.7H97.2c-1.3,0-2.4,1.1-2.4,2.4c0,1.3,1.1,2.4,2.4,2.4H122c0.7,0,1.2,0.5,1.2,1.2v121.1   c0,0.6-0.5,1.1-1.1,1.1H28.4c-0.6,0-1.1-0.5-1.1-1.1V20.6c0-0.6,0.5-1.1,1.1-1.1h25.7c1.3,0,2.4-1.1,2.4-2.4c0-1.3-1.1-2.4-2.4-2.4   H28.4c-3.3,0-5.9,2.6-5.9,5.9v121.2c0,3.3,2.6,5.9,5.9,5.9h93.7c3.2,0,5.9-2.6,5.9-5.9V20.7C128,17.4,125.3,14.7,122,14.7z"/>
	<path class="st0" d="M56.9,54.8c-1-0.9-2.5-0.8-3.4,0.2L44,65.2l-3.2-4.9c-0.8-0.9-2.1-1.2-3.1-0.6c-1.1,0.7-1.5,2.1-0.9,3.3   l4.9,7.5c0.4,0.6,1.1,1,1.8,1.1h0.2c0.7,0,1.3-0.3,1.8-0.8L57,58.3l0.1-0.1C58,57.2,57.9,55.7,56.9,54.8z"/>
	<path class="st0" d="M56.9,85.2c-0.9-0.9-2.5-0.9-3.4,0L44,95.4l-3.2-4.9c-0.1-0.1-0.1-0.2-0.2-0.3c-0.8-1-2.4-1.2-3.4-0.4   s-1.2,2.3-0.4,3.4l4.9,7.4c0.4,0.6,1.1,1,1.8,1.1h0.2c0.7,0,1.3-0.3,1.7-0.8L57,88.5C57.8,87.5,57.8,86.1,56.9,85.2z"/>
	<path class="st0" d="M53.5,115.3L44,125.5l-3.2-4.9c-0.1-0.1-0.1-0.2-0.2-0.3c-0.8-1-2.4-1.2-3.4-0.4c-1,0.8-1.2,2.3-0.4,3.4   l4.9,7.4c0.4,0.6,1.1,1,1.8,1.1h0.2c0.7,0,1.3-0.3,1.8-0.8L57,118.6c0.8-1,0.8-2.4-0.1-3.3C56,114.4,54.4,114.4,53.5,115.3z"/>
	<path class="st0" d="M75.5,24.6c3.9,0,7-3.1,7-7c0-3.9-3.1-7-7-7s-7,3.1-7,7C68.5,21.5,71.6,24.6,75.5,24.6z M75.5,15.4   c1.2,0,2.2,1,2.2,2.2c0,1.2-1,2.2-2.2,2.2s-2.2-1-2.2-2.2C73.3,16.4,74.3,15.4,75.5,15.4z"/>
</g>
</svg>