<svg id="Layer_1" data-name="Layer 1" xmlns="http://www.w3.org/2000/svg" viewBox="0 0 858.01 150"><defs></defs><title>Artboard 6</title><path class="cls-1" d="M163.6,86.9l29.23-63.16c-.28.27-.74.65-1.14,1.08q-28.12,30.33-56.28,60.62a4.32,4.32,0,0,1-2.7,1.4c-14.4.09-28.81.06-43.21,0a12.68,12.68,0,0,1-1.49-.2c-.35-20.92-.69-41.77-1-62.78a3.43,3.43,0,0,0-.56.63q-11.52,25.51-23,51c-1.49,3.31-3,6.63-4.62,9.87a2.83,2.83,0,0,1-2,1.4c-18.63.07-37.25,0-55.88,0A4.74,4.74,0,0,1,0,86.7c.31-.77.57-1.48.89-2.17Q20.3,43.45,39.67,2.33A3.34,3.34,0,0,1,43.24.07q42.14.11,84.25,0h2.78c-.52,16.19.89,32.21-1.16,48.32a3.16,3.16,0,0,0,.63-.37C142.32,33.67,155,19.36,167.4,4.79c3-3.54,6.06-4.83,10.7-4.79,26.77.24,53.55.12,80.32.12h2.82c-.35.92-.58,1.6-.87,2.24q-18.5,41.16-36.94,82.31A3.27,3.27,0,0,1,219.87,87c-17.75-.08-35.51,0-53.26,0Z"/><path class="cls-1" d="M390.1,40.21c5.26,1.23,10.38,2.27,15.39,3.69a23.48,23.48,0,0,1,6.41,3.16c5.38,3.61,7,9.34,4.46,15.32a25.53,25.53,0,0,1-7.73,9.85c-7.83,6.46-17,9.89-26.86,11.74-13,2.45-26.16,2.75-39.33,2.8-31.05.12-62.11.1-93.16.13-.71,0-1.41-.06-2.38-.11.38-.92.64-1.64,1-2.34Q266.72,43.24,285.56,2c.54-1.18,1-2,2.63-2,32.88.11,65.75.06,98.62.23,9.68,0,19.39.6,28.52,4.28a30.59,30.59,0,0,1,8,4.66c4.94,4.1,5.49,11,1.6,16.28-2.81,3.87-6.75,6.33-11,8.32-7.12,3.33-14.75,4.79-22.43,6C391.06,40,390.61,40.09,390.1,40.21ZM314.66,72.59c9,0,17.59.33,25.95-2.1a20,20,0,0,0,9.33-5.37,16.56,16.56,0,0,0,2.66-3.69c2.92-5.75,1-10.71-5.37-11.63-6.85-1-13.88-.87-20.84-1.11-.5,0-1.23.86-1.52,1.48-2.52,5.4-5,10.82-7.44,16.24Zm17-37.12c7.19-.47,13.72-.69,20.2-1.38a20.15,20.15,0,0,0,12.35-5.42c2.33-2.29,4-5,3.12-8.36s-3.86-4.59-6.87-4.85c-6.06-.53-12.16-.67-18.24-.86-.5,0-1.22.67-1.48,1.2-1.3,2.6-2.48,5.25-3.69,7.89Z"/><path class="cls-1" d="M602,52.68c-9.46-4.72-18.43-4.34-26.36,2.57-7.69,6.7-9.47,15.31-6.35,25.43-4.47,1.11-8.84,2.36-13.28,3.26-12.54,2.53-25.27,2.92-38,2.94q-46.61.09-93.19,0c-.7,0-1.4-.07-2.31-.12.38-.93.64-1.66,1-2.36Q442.2,43.5,460.9,2.58A3.59,3.59,0,0,1,464.75.07c28.66.12,57.32,0,86,.23C562.58.38,574.48.65,586,3.78a62.48,62.48,0,0,1,12.35,4.77c8,4.14,11.84,11,11.33,20C609.2,37.19,606.08,45,602,52.68ZM492.43,72.14l.26.8c7.3-.49,14.62-.79,21.89-1.54,7.46-.76,13.64-4.36,18.75-9.75a40.37,40.37,0,0,0,5-6.27c5.62-9,9.77-18.66,11.28-29.25.69-4.8-1.41-8-5.92-9.7a13.37,13.37,0,0,0-3.78-1c-6.16-.37-12.33-.55-18.49-.94a3.15,3.15,0,0,0-3.58,2.23C512.41,28.84,506.81,40.89,501.25,53Q496.83,62.55,492.43,72.14Z"/><path class="cls-1" d="M769.42.25v86.5H707c.51-7.91,1-15.66,1.53-23.7-.8,0-1.49-.09-2.18-.09-10.63,0-21.25-.05-31.87,0a4.76,4.76,0,0,0-3.11,1.4c-6.39,7-12.65,14.06-19,21a4.21,4.21,0,0,1-2.68,1.39c-13.46.09-26.92.06-40.38.06-.29,0-.57-.06-1.11-.11.32-.59.54-1.07.83-1.5a22.13,22.13,0,0,0,3.42-18.48,3,3,0,0,1,.6-2.4q31.56-31.71,63.26-63.3a3.52,3.52,0,0,1,2.25-.95q44.87-.08,89.71,0C768.58.13,768.93.2,769.42.25ZM711.9,19.39l-.44-.26L688.18,45.54h21.6C710.5,36.74,711.2,28.07,711.9,19.39Z"/><path class="cls-1" d="M607.24,72.3A16.81,16.81,0,1,1,590.3,55.53,16.76,16.76,0,0,1,607.24,72.3Z"/><path class="cls-1" d="M610.16,149.76c-.07-.46-.18-.88-.2-1.3-.16-3.19-.15-3.19,3.11-3.19h16.24v-4.94H610.1V126.09H634v4.41H614.73v5H634v14.24Z"/><path class="cls-1" d="M570.74,145.3v4.44H547.08V126.17h23.59v4.24h-19v5.18h19v4.55h-19v5.16Z"/><path class="cls-1" d="M838.91,130.34v5.23H858v14.2H834.33v-4.45h19v-5h-19V126.08H858v4.26Z"/><path class="cls-1" d="M415.59,149.73v-4.4h19.08v-5h-19V126.12h23.6v4.39h-8.32c-2.91,0-5.82.1-8.72,0-1.81-.08-2.57.5-2.34,2.33.11.84.09,1.7.14,2.75h19.21v14.17Z"/><path class="cls-1" d="M454.44,149.74v-4.4h19.08v-5h-19V126.13h23.61v4.38h-6.74c-3.41,0-6.83.1-10.24,0-1.8-.07-2.57.48-2.34,2.31.1.85.09,1.71.14,2.78h19.17v14.17Z"/><path class="cls-1" d="M707.07,145.27v-5H688V126.07h23.74v4.4H692.45v5h19.21v14.26H688c-.07-.54-.18-1-.2-1.52-.12-2.92-.11-2.93,2.73-2.93Z"/><path class="cls-1" d="M761.07,135.65h19.22v4.55H761.08v5h19.17v4.54H756.57V126.13h23.72v4.38H761.07Z"/><path class="cls-1" d="M366.75,149.73v-19h-5v19.07h-4.53V126.14h23.58V149.6a3,3,0,0,1-.63.24c-3.67.23-3.67.23-3.68-3.5V130.71h-5.13v19Z"/><path class="cls-1" d="M819.12,149.8h-4.43V130.69h-5v19h-4.69v-19h-5.22V137c0,3.42-.16,6.84,0,10.25.14,2.33-.76,3-2.86,2.66-.48-.07-1-.08-1.61-.14V126.09h23.71Z"/><path class="cls-1" d="M668.21,145.27v-5H649V126h4.32v9.42h14.95v-9.34h4.55v23.63H649.16a2,2,0,0,1-.24-.56c-.42-3.91-.42-3.91,3.42-3.91Z"/><path class="cls-1" d="M512.61,149.73V126.15h4.51v19.14h11.52c1.89,0,3.79.13,5.67,0s2.74.43,2.42,2.4c-.1.63-.07,1.28-.11,2.07Z"/><path class="cls-1" d="M722.26,126.08h23.68v4.46h-6.6c-3,0-3,0-3,2.89v16.3h-4.61V130.57h-9.48Z"/><path class="cls-1" d="M396.1,126.08h4.32v23.67H396.1Z"/><path class="cls-1" d="M493.36,149.59V126.3c.23-.12.35-.24.47-.25,3.82-.26,3.82-.26,3.82,3.49q0,8.37,0,16.74C497.65,150.35,497.6,150.4,493.36,149.59Z"/></svg>