<svg version="1.1" id="Webinar_Calendar_Icon" xmlns="http://www.w3.org/2000/svg" xmlns:xlink="http://www.w3.org/1999/xlink" x="0px" y="0px" viewBox="0 0 150 150" style="enable-background:new 0 0 150 150;" xml:space="preserve">
<style type="text/css">
	.st0{fill:#53565A;}
</style>
<title>Webinar Calendar Icon</title>
<g>
	<path class="st0" d="M40.4,35.7c1.3,0,2.4-1.1,2.4-2.4V2.9c-0.1-1.2-1-2.1-2.2-2.2c-1.3-0.1-2.4,0.9-2.5,2.2v30.4   C38,34.7,39.1,35.7,40.4,35.7z" />
	<path class="st0" d="M142,18.8H120.7a2.35,2.35,0,0,0,.3,4.7h21c.9,0,1.4.5,1.4,1V60H6.6V24.6c0-.5.6-1,1.4-1H29a2.35,2.35,0,0,0,0-4.7H8a6,6,0,0,0-6.2,5.7v119A6,6,0,0,0,8,149.3H142a6,6,0,0,0,6.2-5.7V24.6A6.08,6.08,0,0,0,142,18.8Zm0,125.8H8c-.8,0-1.4-.43-1.4-.86V65H143.5v78.65A1.44,1.44,0,0,1,142,144.6z" />
	<path class="st0" d="M51.8,23.6h46.3c0.1,0,0.2,0,0.3,0c1.3-0.1,2.3-1.2,2.2-2.5s-1.2-2.3-2.5-2.2H51.8c-1.2,0.1-2.1,1-2.2,2.2   C49.5,22.4,50.5,23.5,51.8,23.6z" />
	<path class="st0" d="M109.6,35.7c1.3,0,2.4-1.1,2.4-2.4V2.9c-0.1-1.2-1-2.1-2.2-2.2c-1.3-0.1-2.4,0.9-2.5,2.2v30.4   C107.2,34.7,108.3,35.7,109.6,35.7z" />
</g>
</svg>