<svg id="Icon_Graphics" data-name="Icon Graphics" xmlns="http://www.w3.org/2000/svg" viewBox="0 0 150 150"><defs><style>.cls-1{fill:#53565a;}</style></defs><title>Artboard 1</title><path class="cls-1" d="M146.13,117.11H3.63a2.4,2.4,0,0,0,0,4.8h142.5a2.43,2.43,0,0,0,2.4-2.4A2.37,2.37,0,0,0,146.13,117.11Z" /><path class="cls-1" d="M21.13,108.11h107.7a6,6,0,0,0,6-6v-73a6,6,0,0,0-6-6H21.13a6,6,0,0,0-6,6v73A5.89,5.89,0,0,0,21.13,108.11Zm-1.3-79a1.32,1.32,0,0,1,1.3-1.3h107.7a1.32,1.32,0,0,1,1.3,1.3v73a1.32,1.32,0,0,1-1.3,1.3H21.13a1.32,1.32,0,0,1-1.3-1.3Z" /><path class="cls-1" d="M66.87,73.57h.32a15.87,15.87,0,0,0,15.61-16v-.32A15.78,15.78,0,0,0,66.87,41.56a16,16,0,0,0,0,32Zm0-28.94h.26A12.71,12.71,0,0,1,79.67,57.56v.27a12.61,12.61,0,0,1-12.8,12.6,12.9,12.9,0,1,1,0-25.8Z" /><path class="cls-1" d="M98.54,103.67V94c0-8.88-7.25-16.66-16.52-17.64a1.43,1.43,0,0,0-1.11.33c-3.2,2.48-8.17,5.49-14,5.49s-10.77-3-13.91-5.55a1.67,1.67,0,0,0-1.11-.33c-9.6.85-16.78,8.49-16.78,17.7v9.6m63.41.06,17.18-.06V89.17a7,7,0,0,0-2.09-4.89L111,81.66l1.5-1.82h0a1.54,1.54,0,0,0-.19-2.16l-14.18-12a1.54,1.54,0,0,0-2.15.2l-4.57,5.42A1.79,1.79,0,0,0,91,72.39a1.56,1.56,0,0,0,.52,1l14.24,12a1.44,1.44,0,0,0,1,.39h.13a2,2,0,0,0,1-.52l1.05-1.24,2.54,2.42a4.06,4.06,0,0,1,1.18,2.67v14.5m-6.14-21.55-11.82-10,2.61-3.07,11.82,10ZM38.26,94A14.86,14.86,0,0,1,51.58,79.44c3.6,2.75,9,5.82,15.35,5.82s11.82-3,15.41-5.75c7.45,1.11,13.13,7.31,13.13,14.5v9.6H38.26Z" /></svg>