<svg xmlns="http://www.w3.org/2000/svg" width="56.81" height="60.598" viewBox="0 0 56.81 60.598">
  <path id="Icon_metro-calendar" data-name="Icon metro-calendar" d="M21.507,24.652h7.575v7.575H21.507Zm11.362,0h7.575v7.575H32.869Zm11.362,0h7.575v7.575H44.231ZM10.145,47.376H17.72v7.575H10.145Zm11.362,0h7.575v7.575H21.507Zm11.362,0h7.575v7.575H32.869ZM21.507,36.014h7.575v7.575H21.507Zm11.362,0h7.575v7.575H32.869Zm11.362,0h7.575v7.575H44.231Zm-34.086,0H17.72v7.575H10.145ZM51.806,1.928V5.715H44.231V1.928H17.72V5.715H10.145V1.928H2.571v60.6h56.81V1.928H51.806Zm3.787,56.81H6.358V17.077H55.594Z" transform="translate(-2.571 -1.928)"/>
</svg>
