<svg xmlns="http://www.w3.org/2000/svg" width="56.693" height="75.591" viewBox="0 0 56.693 75.591">
  <path id="Icon_awesome-hand-point-up" data-name="Icon awesome-hand-point-up" d="M20.028,0A6.658,6.658,0,0,1,26.5,6.614V21.356a7.262,7.262,0,0,1,10.474.93,6.763,6.763,0,0,1,9.2,2.429c7.255-1.325,10.521,3.24,10.521,10.719,0,.405-.03,1.96-.029,2.362.025,9.149-4.586,11.353-5.657,18.268a3.539,3.539,0,0,1-3.5,2.992H22.184a7.087,7.087,0,0,1-6.473-4.2C13.793,50.588,8.471,40.766,4.3,38.977,1.609,37.826,0,35.82,0,33.071a7.091,7.091,0,0,1,9.878-6.514,20.067,20.067,0,0,1,3.679,2.09V6.614A6.765,6.765,0,0,1,20.028,0Zm.051,61.418H48.426a3.543,3.543,0,0,1,3.543,3.543v7.087a3.543,3.543,0,0,1-3.543,3.543H20.079a3.543,3.543,0,0,1-3.543-3.543V64.961A3.543,3.543,0,0,1,20.079,61.418Zm24.8,4.134A2.953,2.953,0,1,0,47.835,68.5,2.953,2.953,0,0,0,44.882,65.552Z"/>
</svg>
