<svg xmlns="http://www.w3.org/2000/svg" width="20.855" height="20.327" viewBox="0 0 20.855 20.327">
  <path id="Icon_awesome-arrow-right" data-name="Icon awesome-arrow-right" d="M8.867,4.009,9.9,2.975a1.113,1.113,0,0,1,1.578,0l9.049,9.044a1.113,1.113,0,0,1,0,1.578l-9.049,9.049a1.113,1.113,0,0,1-1.578,0L8.867,21.613a1.118,1.118,0,0,1,.019-1.6l5.609-5.344H1.117A1.114,1.114,0,0,1,0,13.555V12.066a1.114,1.114,0,0,1,1.117-1.117H14.495L8.886,5.605A1.11,1.11,0,0,1,8.867,4.009Z" transform="translate(0 -2.647)" fill="#bdc3ca"/>
</svg>
