<svg xmlns="http://www.w3.org/2000/svg" width="20" height="20" viewBox="0 0 20 20"><path d="M4.488,13.846a9.805,9.805,0,0,1,1.35-5.027,9.992,9.992,0,0,1,3.65-3.65,9.981,9.981,0,0,1,8.89-.551A10.09,10.09,0,0,1,21.566,6.75a9.792,9.792,0,0,1,2.131,3.2,9.931,9.931,0,0,1-5.32,13.091,9.967,9.967,0,0,1-7.78,0A9.841,9.841,0,0,1,5.27,17.727,9.624,9.624,0,0,1,4.488,13.846Zm2.2,0a7.548,7.548,0,0,0,2.3,5.488,7.5,7.5,0,0,0,5.506,2.3,7.55,7.55,0,0,0,3.9-1.048,7.879,7.879,0,0,0,2.851-2.842,7.736,7.736,0,0,0,0-7.806A7.835,7.835,0,0,0,18.4,7.087a7.776,7.776,0,0,0-7.8,0,8,8,0,0,0-2.86,2.851A7.52,7.52,0,0,0,6.69,13.846Zm7.034,0V7.931a.737.737,0,1,1,1.474,0v5.462l3.188,1.856a.725.725,0,0,1,.337.453.667.667,0,0,1-.08.551.692.692,0,0,1-.639.373.618.618,0,0,1-.373-.107l-3.393-1.98a.731.731,0,0,1-.373-.258A.675.675,0,0,1,13.724,13.846Z" transform="translate(-4.488 -3.828)" fill="#101820"/></svg>