<svg width="16" height="16" viewBox="0 0 16 16" fill="none" xmlns="http://www.w3.org/2000/svg">
<g clip-path="url(#clip0)">
<path d="M10 4.33333C9.632 4.33333 9.33334 4.03467 9.33334 3.66667V2.66667H6.66667V3.66667C6.66667 4.03467 6.368 4.33333 6 4.33333C5.632 4.33333 5.33333 4.03467 5.33333 3.66667V2.66667C5.33333 1.93133 5.93133 1.33333 6.66667 1.33333H9.33334C10.0687 1.33333 10.6667 1.93133 10.6667 2.66667V3.66667C10.6667 4.03467 10.368 4.33333 10 4.33333Z" fill="black"/>
<path d="M8.47333 10.2533C8.35333 10.3 8.17999 10.3333 7.99999 10.3333C7.81999 10.3333 7.64666 10.3 7.48666 10.24L-7.62939e-06 7.74666V12.8333C-7.62939e-06 13.8467 0.819992 14.6667 1.83333 14.6667H14.1667C15.18 14.6667 16 13.8467 16 12.8333V7.74666L8.47333 10.2533Z" fill="black"/>
<path d="M16 5.16667V6.69333L8.15999 9.30667C8.10666 9.32667 8.05333 9.33333 7.99999 9.33333C7.94666 9.33333 7.89333 9.32667 7.83999 9.30667L-7.62939e-06 6.69333V5.16667C-7.62939e-06 4.15333 0.819992 3.33333 1.83333 3.33333H14.1667C15.18 3.33333 16 4.15333 16 5.16667V5.16667Z" fill="black"/>
</g>
<defs>
<clipPath id="clip0">
<rect width="16" height="16" fill="white"/>
</clipPath>
</defs>
</svg>
