<svg xmlns="http://www.w3.org/2000/svg" width="31.063" height="25.229" viewBox="0 0 31.063 25.229"><path d="M27.87,9.668c.02.276.02.552.02.828,0,8.416-6.406,18.113-18.113,18.113A17.99,17.99,0,0,1,0,25.751a13.17,13.17,0,0,0,1.537.079,12.75,12.75,0,0,0,7.9-2.72A6.378,6.378,0,0,1,3.489,18.7a8.028,8.028,0,0,0,1.2.1,6.733,6.733,0,0,0,1.675-.217,6.367,6.367,0,0,1-5.1-6.248V12.25a6.411,6.411,0,0,0,2.878.808A6.376,6.376,0,0,1,2.168,4.544a18.1,18.1,0,0,0,13.127,6.662,7.187,7.187,0,0,1-.158-1.458A6.372,6.372,0,0,1,26.155,5.391,12.534,12.534,0,0,0,30.2,3.854a6.349,6.349,0,0,1-2.8,3.508,12.763,12.763,0,0,0,3.666-.985A13.685,13.685,0,0,1,27.87,9.668Z" transform="translate(0 -3.381)"/></svg>