<svg xmlns="http://www.w3.org/2000/svg" width="33.134" height="23.297" viewBox="0 0 33.134 23.297"><path d="M33.491,8.145A4.163,4.163,0,0,0,30.562,5.2c-2.584-.7-12.945-.7-12.945-.7s-10.361,0-12.945.7A4.163,4.163,0,0,0,1.742,8.145a43.674,43.674,0,0,0-.692,8.027A43.674,43.674,0,0,0,1.742,24.2a4.1,4.1,0,0,0,2.929,2.9c2.584.7,12.945.7,12.945.7s10.361,0,12.945-.7a4.1,4.1,0,0,0,2.929-2.9,43.674,43.674,0,0,0,.692-8.027,43.674,43.674,0,0,0-.692-8.027ZM14.228,21.1V11.246l8.66,4.927L14.228,21.1Z" transform="translate(-1.05 -4.5)"/></svg>